<svg version="1.1" id="Layer_1" xmlns="http://www.w3.org/2000/svg" xmlns:xlink="http://www.w3.org/1999/xlink" x="0px" y="0px"
	 width="100%" viewBox="0 0 192 176" enable-background="new 0 0 192 176" xml:space="preserve">
<path fill="#000000" opacity="1.000000" stroke="none" 
	d="
M124.964096,54.893608 
	C130.133804,51.774391 134.987595,48.793102 140.914490,48.681553 
	C146.327881,48.579670 148.856796,50.901398 149.314590,56.321701 
	C149.868439,62.879314 148.881439,69.279266 147.039612,75.542458 
	C141.125961,95.651863 134.387650,115.515556 129.127991,135.822296 
	C128.554398,138.036819 127.440247,140.176651 126.238869,142.144836 
	C125.043655,144.102936 123.064247,145.398895 120.726791,144.397263 
	C118.072662,143.259933 118.744392,140.985336 119.407578,138.808273 
	C123.770500,124.485893 128.246979,110.195587 132.387115,95.808685 
	C135.514252,84.941986 138.242996,73.959183 141.052979,63.003407 
	C142.138733,58.770100 140.679672,57.341629 136.466125,58.648884 
	C131.770676,60.105648 127.920929,63.041466 124.349472,66.374512 
	C114.185730,75.859726 106.116859,87.137154 97.310539,97.786781 
	C94.981827,100.602951 92.417496,103.234009 89.847237,105.837410 
	C88.025398,107.682747 85.686096,107.996773 83.367874,107.000496 
	C81.228218,106.080940 81.728523,103.946198 81.681015,102.171669 
	C81.441124,93.211319 84.717735,84.870949 86.350136,76.242111 
	C87.554749,69.874557 89.205597,63.592331 90.483955,57.237152 
	C90.787544,55.727890 91.431992,53.725201 89.631462,52.671192 
	C87.947784,51.685585 86.404816,52.818398 85.070526,53.809666 
	C79.182198,58.184208 75.293671,64.236916 71.620659,70.385582 
	C61.181660,87.860611 53.408154,106.700760 43.996929,124.704315 
	C42.764557,127.061844 41.405838,129.367844 39.921413,131.573746 
	C39.007210,132.932266 37.759293,134.514099 35.863621,133.686340 
	C33.902584,132.830048 33.780258,130.889465 34.106239,128.952774 
	C35.250641,122.153877 37.860367,115.828392 40.664127,109.616951 
	C49.098930,90.930473 58.501064,72.732368 68.669418,54.926060 
	C70.170265,52.297836 71.597145,50.248272 75.127769,50.648632 
	C77.967575,50.970650 80.068398,48.955952 82.316620,47.546783 
	C84.288658,46.310722 86.210220,44.931580 88.321655,43.992329 
	C94.392654,41.291714 97.952393,43.582996 98.378960,50.224560 
	C98.974030,59.489613 96.923012,68.410965 94.944023,77.345749 
	C94.373840,79.920044 93.819351,82.497818 93.629982,85.342934 
	C103.448227,74.642975 111.303650,62.016998 124.964096,54.893608 
z"/>
<path fill="#000000" opacity="1.000000" stroke="none" 
	d="
M151.827332,129.979614 
	C151.992599,128.935287 152.092407,128.268570 152.325256,127.652107 
	C153.676971,124.073219 156.224411,122.150375 160.058823,123.019348 
	C162.799759,123.640488 164.371979,125.935051 163.979599,128.648331 
	C163.475830,132.131897 161.495773,134.900925 157.721939,135.540955 
	C153.819992,136.202728 152.405853,133.687286 151.827332,129.979614 
z"/>
</svg>