<?xml version="1.0" standalone="no"?>
<!DOCTYPE svg PUBLIC "-//W3C//DTD SVG 20010904//EN"
 "http://www.w3.org/TR/2001/REC-SVG-20010904/DTD/svg10.dtd">
<svg version="1.0" xmlns="http://www.w3.org/2000/svg"
 width="194.000000pt" height="184.000000pt" viewBox="0 0 194.000000 184.000000"
 preserveAspectRatio="xMidYMid meet">
<metadata>
Created by potrace 1.10, written by Peter Selinger 2001-2011
</metadata>
<g transform="translate(0.000000,184.000000) scale(0.100000,-0.100000)"
fill="#000000" stroke="none">
<path d="M890 1409 c-14 -6 -47 -24 -73 -41 -31 -20 -60 -31 -81 -30 -30 1
-34 -3 -105 -134 -218 -400 -326 -661 -282 -688 18 -12 54 50 185 312 138 278
203 391 260 450 37 40 82 66 102 58 16 -6 17 -2 -43 -273 -49 -225 -52 -276
-14 -281 31 -5 67 31 194 188 166 206 252 283 337 303 51 12 52 1 9 -163 -39
-150 -122 -441 -173 -604 -26 -84 -26 -96 4 -96 29 0 56 43 74 117 10 37 49
172 88 298 116 378 129 455 87 509 -37 47 -109 30 -242 -57 -100 -66 -105 -71
-206 -196 -93 -115 -107 -127 -97 -85 29 111 56 269 56 322 0 49 -4 66 -20 82
-22 22 -25 23 -60 9z"/>
<path d="M1547 609 c-46 -27 -40 -109 8 -109 54 0 90 86 46 110 -24 12 -31 12
-54 -1z"/>
</g>
</svg>
