<svg xmlns="http://www.w3.org/2000/svg" viewBox="0 0 566.69 405.38">
  <defs>
    <clipPath id="clip-path">
      <rect class="cls-1" x="97.91" y="163.67" width="102.22" height="7.57" rx="2.31" transform="rotate(85.71 149.02368537 167.4631819)"/>
    </clipPath>
    <clipPath id="clip-path-2">
      <rect class="cls-1" x="136.72" y="161.75" width="102.22" height="7.57" rx="2.31" transform="rotate(94.29 187.83599662 165.53679122)"/>
    </clipPath>
    <clipPath id="clip-path-3">
      <rect class="cls-1" x="117.73" y="159.64" width="102.22" height="7.57" rx="2.31" transform="rotate(90 168.84 163.42)"/>
    </clipPath>
    <clipPath id="clip-path-4">
      <path class="cls-1" d="M195.28 126.74a35.87 35.87 0 019.72 27.14l-4 59.87c2.32.22 4.65.21 7 .28.63 0 1.26-.05 1.88-.05l4-59.51a45.07 45.07 0 00-45-48.06 45.06 45.06 0 00-45 48.06l4 60.29c3-.37 5.86-.84 8.79-1.3l-4-59.58a36.21 36.21 0 0162.57-27.14z"/>
    </clipPath>
    <clipPath id="clip-path-5">
      <rect class="cls-1" x="121.78" y="210.97" width="94.11" height="7.57" rx="2.21"/>
    </clipPath>
    <clipPath id="clip-path-6">
      <path class="cls-1" d="M234.73 286.58a12.5 12.5 0 0112.5 12.5v12.5h-25v-12.5a12.5 12.5 0 0112.5-12.5z" transform="matrix(.96 .29 -.29 .96 95.44 -54.68)"/>
    </clipPath>
    <clipPath id="clip-path-7">
      <path class="cls-1" d="M195.55 308h1.9A11.55 11.55 0 01209 319.56v9.79h-25v-9.79A11.55 11.55 0 01195.55 308z"/>
    </clipPath>
    <clipPath id="clip-path-8">
      <path id="fringe" class="cls-1" d="M217.05 14.62c-3.24 11.6-12.49 18.37-24.54 20-2.75.38-8.16 21.96-10.71 21.38-.41-1.26.14-23.1 0-24.45-1.69-12.44 9.14-22.17 21.71-23.87 2.28-.31 13.12-.81 15.28-.47.64 1.65-1.32 5.88-1.74 7.41z"/>
    </clipPath>
    <clipPath id="clip-path-9">
      <rect id="_Rectangle_" data-name="&lt;Rectangle&gt;" class="cls-1" y="170.38" width="540" height="10" rx="5"/>
    </clipPath>
    <clipPath id="clip-path-10">
      <rect class="cls-1" x="90" y="170.38" width="450" height="10" rx="5"/>
    </clipPath>
    <style>
      .cls-1,.cls-10,.cls-19,.cls-29,.cls-38,.cls-41,.cls-5,.cls-56,.cls-62,.cls-65,.cls-68,.cls-71,.cls-74{fill:none}.cls-3{fill:#e29957}.cls-10,.cls-5{stroke:#d7771a}.cls-10,.cls-19,.cls-29,.cls-38,.cls-41,.cls-5,.cls-56,.cls-62,.cls-65,.cls-68,.cls-71,.cls-74{stroke-miterlimit:10}.cls-5{stroke-width:1.15px}.cls-8{fill:#e8a870}.cls-10{stroke-width:1.11px}.cls-11{fill:#333132}.cls-13{fill:#545456}.cls-14{fill:#434345}.cls-15{fill:#666}.cls-16{fill:#ee2724}.cls-17{fill:#e4e5e6}.cls-19,.cls-29{stroke:#d1d3d4}.cls-20{fill:#757679}.cls-21{fill:#f9cfac}.cls-22{fill:#ffcf01}.cls-23{fill:#ffe4cc}.cls-25{fill:#010303}.cls-26{fill:#3c3f3f}.cls-27{fill:#505352}.cls-29{stroke-width:.92px}.cls-32{fill:#d2d5d4}.cls-33{fill:#4a3222}.cls-34{fill:#3b4752}.cls-38{stroke:#231f20;stroke-width:2.63px}.cls-41{stroke:#87665b}.cls-45{fill:#ee283b}.cls-49{fill:#e8e9ea}.cls-51{fill:#dadbdc}.cls-52{fill:#4d4d4d}.cls-56{stroke:#8c6239}.cls-59{fill:#fef2e9;opacity:.58;mix-blend-mode:multiply}.cls-60,.cls-61{mix-blend-mode:darken}.cls-61{fill:#f6eae2}.cls-62,.cls-65,.cls-68,.cls-71,.cls-74{stroke:#f5e2d3}.cls-65{stroke-width:.91px}.cls-68{stroke-width:.94px}.cls-71{stroke-width:.75px}.cls-74{stroke-width:.78px}.cls-79{fill:#8ca828}.cls-81{fill:#a9ba5a}
    </style>
  </defs>
  <g style="isolation:isolate">
    <g id="chair">
      <rect class="cls-3" x="97.91" y="163.67" width="102.22" height="7.57" rx="2.31" transform="rotate(85.71 149.02368537 167.4631819)"/>
      <g clip-path="url(#clip-path)">
        <path class="cls-5" d="M147 110.69A39.14 39.14 0 01135.48 135M150.47 111.51a56.71 56.71 0 00-4.47 33.24 55.06 55.06 0 0015.13 29.57"/>
        <path class="cls-5" d="M152.42 120.22c-5 6.86-5.64 16.71-3.24 25.17s7.41 15.8 12.78 22.51M142.6 150.25a33.16 33.16 0 015.26 27.55c-2.45 9.33-9.31 17.1-17.79 20.15M154.5 171.76l.15 2M155.59 175.09l-.33-.67M156.43 172.91l-12.61 17.88c-2.63 3.72-5.4 8.05-4.66 12.71.85 5.28 6.43 8.71 11.28 7.81s8.69-5.23 10.5-10.19 1.87-10.47 1.49-15.81"/>
        <path class="cls-5" d="M155.79 181.07c-1.66 2.77-4.11 4.84-6.36 7.06s-4.42 4.78-5.22 8 .21 7.16 3 8.66 5.9.14 7.82-2.19 2.77-5.47 3.4-8.53 1.12-6.23 2.52-9"/>
        <path class="cls-5" d="M146.53 194.44c-.63 2.13.36 5 2.4 5.41 1.9.39 3.56-1.33 4.7-3 5.03-7.39-5.37-8.26-7.1-2.41zM142.38 224a75.85 75.85 0 0028.75-31.17"/>
      </g>
      <rect class="cls-3" x="136.72" y="161.75" width="102.22" height="7.57" rx="2.31" transform="rotate(94.29 187.83599662 165.53679122)"/>
      <g clip-path="url(#clip-path-2)">
        <path class="cls-5" d="M189.9 108.77a39.1 39.1 0 0011.48 24.34M186.38 109.59a56.55 56.55 0 014.43 33.24 55.1 55.1 0 01-15.13 29.57"/>
        <path class="cls-5" d="M184.43 118.3c5 6.86 5.65 16.7 3.25 25.17s-7.42 15.8-12.79 22.51M194.26 148.33a33.12 33.12 0 00-5.26 27.55c2.45 9.33 9.3 17.1 17.78 20.15M182.35 169.84l-.15 2M181.26 173.17l.33-.67M180.42 171L193 188.86c2.63 3.73 5.4 8.06 4.66 12.71-.84 5.29-6.42 8.72-11.28 7.82s-8.69-5.23-10.49-10.19-1.87-10.47-1.5-15.82"/>
        <path class="cls-5" d="M181.06 179.15c1.66 2.77 4.11 4.84 6.36 7.06s4.42 4.78 5.22 8-.21 7.16-3 8.65-5.9.15-7.82-2.18-2.77-5.47-3.4-8.53-1.12-6.23-2.52-9"/>
        <path class="cls-5" d="M190.32 192.51c.64 2.14-.36 5-2.39 5.42-1.91.39-3.57-1.33-4.71-3-5.03-7.39 5.37-8.26 7.1-2.42zM194.47 222.1a75.85 75.85 0 01-28.75-31.17"/>
      </g>
      <rect class="cls-3" x="117.73" y="159.64" width="102.22" height="7.57" rx="2.31" transform="rotate(90 168.84 163.42)"/>
      <g clip-path="url(#clip-path-3)">
        <path class="cls-5" d="M166.65 106.66a39.13 39.13 0 0013.27 23.41M163.21 107.74a56.67 56.67 0 016.9 32.82 55 55 0 01-12.88 30.61"/>
        <path class="cls-5" d="M161.91 116.57c5.55 6.46 6.88 16.24 5.12 24.86s-6.21 16.31-11.06 23.4M174 145.78a33.15 33.15 0 00-3.19 27.87c3.14 9.12 10.56 16.35 19.24 18.76M163.69 168.12v2M162.86 171.52l.27-.69M161.86 169.41l13.91 16.88c2.9 3.52 6 7.63 5.59 12.33-.44 5.33-5.75 9.17-10.66 8.64s-9.06-4.57-11.23-9.38-2.64-10.3-2.67-15.66"/>
        <path class="cls-5" d="M163.1 177.5c1.87 2.64 4.46 4.52 6.88 6.57s4.76 4.43 5.8 7.56.33 7.16-2.31 8.86c-2.49 1.6-5.87.58-8-1.6s-3.17-5.24-4-8.25-1.58-6.13-3.18-8.75"/>
        <path class="cls-5" d="M173.34 190.14c.79 2.08 0 5-2 5.58-1.86.53-3.65-1.06-4.91-2.65-5.56-6.99 4.75-8.63 6.91-2.93zM179.69 219.33a75.92 75.92 0 01-31-28.93"/>
      </g>
      <path class="cls-8" d="M213.25 162.89l-.5 7.48-.06.89-2.85 42.74c-.62 0-1.25 0-1.88.05-2.33-.07-4.66-.07-7-.28l1.33-19.92 1.39-20.94h1.84a11.46 11.46 0 004.8-1l.36-1.11zM213.81 154.47l-.32 4.74h-8.88l.36-5.33a35.88 35.88 0 00-9.69-27.15 36.39 36.39 0 00-8.64-6.83l-.11-.06a35.89 35.89 0 00-17.61-4.58h-.11a35.92 35.92 0 00-26.4 11.47 35.81 35.81 0 00-9.69 27.15l2.3 34.48 1 14.95.68 10.14c-2.93.47-5.85.94-8.79 1.3l-4-60.28c-.07-1-.1-2.05-.1-3.06A45.1 45.1 0 01161.4 107a45.55 45.55 0 017.44-.61h.72a44.72 44.72 0 0117.65 3.89h.12a45.1 45.1 0 0126.48 44.19z"/>
      <g clip-path="url(#clip-path-4)">
        <path class="cls-10" d="M131.33 218a21.53 21.53 0 019.89-19.22M125.47 216.51c10-14.29 11.53-32.69 12.72-50.11"/>
        <path class="cls-10" d="M124.85 212.51a40.6 40.6 0 006-22.15c0-1.35-.57-3.12-1.91-3.06-.91 0-1.49.95-1.89 1.76a36.42 36.42 0 00-3.64 15.44M137.9 189.65l.63.92M138 194c-1.34-7.06-8.12-11.47-13-16.78a36.05 36.05 0 01-9.22-26.73"/>
        <path class="cls-10" d="M122.42 164.64v-1.19c.11 3.3 2.18 6.22 4.56 8.5s5.15 4.14 7.35 6.6c6.3 7 6.77 17.38 6.91 26.83M134.15 174.43c-2.05-2.27-4.15-4.65-5-7.59s-.08-6.59 2.59-8.09c2.37-1.34 5.33-.6 7.95.17"/>
        <path class="cls-10" d="M121.69 167.69c-.07-3.86 0-8 2.11-11.22 1.85-2.92 5-4.73 7.54-7a24.16 24.16 0 007.93-17.26M119.92 142.48c.58 2.27 3.77 3 5.8 1.8s3.13-3.45 3.95-5.65 1.58-4.53 3.28-6.15c1.12-1.06 2.56-1.72 3.77-2.67a9.78 9.78 0 003.59-6.26 7.42 7.42 0 00-2.65-7c-2.13-1.54-5.54-1.24-7 1"/>
        <path class="cls-10" d="M123.56 137.38c3.59-2.83 7.05-6.13 8.63-10.41s.71-9.77-3.05-12.35M150.2 108a28.64 28.64 0 00-7.17 9.68c-.36.79-.61 1.88.1 2.39 1 .72 2.09-.72 2.81-1.72a8.38 8.38 0 015.4-2.93c2.07-.37 4.18-.33 6.26-.61a20.18 20.18 0 0016.83-18.51"/>
        <path class="cls-10" d="M158.28 106.23a15.84 15.84 0 00-4.85 3.62 2.11 2.11 0 00-.71 1.56c.15 1.14 1.75 1.29 2.86 1a13.62 13.62 0 009.63-16.56M121.12 154.8a34.32 34.32 0 0116.22-12.51M141.61 127.52a6.22 6.22 0 0111.49-2.61M161.31 119.32c2.35-4.76 7.47-7.57 12.63-8.83s10.52-1.28 15.76-2.1a51.58 51.58 0 0021.3-8.54M168.9 120.13a56.81 56.81 0 0124.86-8.77c3.37-.35 7.25-.21 9.49 2.34 2 2.29 1.94 5.92.42 8.58a15 15 0 01-7 5.75c-2.64 1.23-5.55 2.13-7.62 4.18s-2.86 5.81-.71 7.78c1.61 1.46 4.18 1.31 6.12.32s3.42-2.65 5-4.12a32.15 32.15 0 0113.15-7.26c3-.82 6.67-1 8.57 1.45 2.27 2.91.26 7.16-2.13 10-10 11.83-25.5 17.26-40.2 22.18"/>
        <path class="cls-10" d="M178.3 120c3.58 2.18 8 2.48 12.14 2.73 1.58.09 3.49 0 4.29-1.34.94-1.57-.39-3.56-1.93-4.54-3.49-2.22-8.18-2-11.87-.08s-6.49 5.18-8.63 8.73M209.66 120.32a12.9 12.9 0 01-6.33 5.82 10.58 10.58 0 00-3.32 1.67c-.91.86-1.27 2.48-.35 3.31a2.39 2.39 0 002.88-.1 15.73 15.73 0 002.16-2.23c2.55-2.65 6.49-3.29 10.14-3.79M201.87 143.59a2.13 2.13 0 01-1-1.83"/>
        <path class="cls-10" d="M200.39 141.4c.53-2.21 1.13-4.55 2.76-6.13s4.68-1.93 6-.1c1 1.4.67 3.37 0 5-1.42 3.39-4 6.16-6.67 8.67a82.42 82.42 0 01-12.65 9.75"/>
        <path class="cls-10" d="M202 141.7a6.35 6.35 0 011.37-3.64c.94-.94 2.82-1 3.38.21.43.94-.14 2-.69 2.87l-4.14 6.51M218.26 147l.69-2c-2.48 7.68-10.73 11.63-16.38 17.4-5.29 5.41-8.38 12.67-9.92 20.08s-1.65 15-1.69 22.61"/>
        <path class="cls-10" d="M200.24 174.51c-.32-3.49 1.51-6.87 3.94-9.39s5.44-4.39 8.21-6.54a49.87 49.87 0 0015.82-21.22M215 160.13a23.24 23.24 0 00-7.13 21.77c.45 2.1 1.39 4.35 3.36 5.2a7 7 0 004.84-.18 29 29 0 0011.17-6.5"/>
        <path class="cls-10" d="M214.1 167.51a11.28 11.28 0 00-4.52 6.11 5.57 5.57 0 00-.05 3.65 5 5 0 003.94 2.78 14.93 14.93 0 005-.37M200.24 178.21c3.55 5.89 7.25 12.46 6.08 19.24a19.49 19.49 0 01-5.82 10.26 58 58 0 01-9.6 7.15"/>
        <path class="cls-10" d="M216.82 187.13a16.9 16.9 0 00-5.92 7.87c-1.4 3.86-1.35 8.12-2.71 12a23.31 23.31 0 01-7.95 10.35 69.41 69.41 0 01-11.37 6.73l.93-1"/>
      </g>
      <rect class="cls-11" x="125.52" y="213.45" width="86.63" height="10.18" rx="5.09"/>
      <rect class="cls-3" x="121.78" y="210.97" width="94.11" height="7.57" rx="2.21"/>
      <g clip-path="url(#clip-path-5)">
        <path class="cls-10" d="M116.57 216.94a35.46 35.46 0 0021.56-13.26M117.57 220.39a48.3 48.3 0 0158.41 6"/>
        <path class="cls-10" d="M125.7 221.68c6-5.55 15-6.88 22.89-5.12s15 6.21 21.54 11.07M152.6 209.64a27.93 27.93 0 0042.93-16.06M173.16 219.9H175M176.29 220.74l-.63-.28M174.35 221.74l15.55-13.91c3.23-2.9 7-6 11.34-5.6 4.92.45 8.45 5.75 8 10.66s-4.2 9.06-8.63 11.23-9.49 2.65-14.42 2.67"/>
        <path class="cls-10" d="M181.8 220.49c2.43-1.86 4.16-4.46 6-6.87s4.08-4.77 7-5.8 6.59-.33 8.15 2.31.54 5.86-1.47 8-4.82 3.17-7.59 4-5.64 1.59-8.06 3.18"/>
        <path class="cls-10" d="M193.43 210.26c1.92-.8 4.59 0 5.14 2 .49 1.87-1 3.66-2.44 4.91-6.43 5.56-7.94-4.75-2.7-6.91zM220.31 203.91a73.82 73.82 0 01-26.64 31"/>
      </g>
      <path class="cls-13" d="M147.58 254.23h11.29v145.71h-11.29z"/>
      <path class="cls-14" d="M144.78 245.18h14.38v20.43h-14.38z"/>
      <path class="cls-11" d="M141.32 221.47h21.28v30.25h-21.28z"/>
      <rect class="cls-13" x="123.75" y="395.38" width="61.18" height="10" rx="3.78"/>
      <rect class="cls-15" x="139.16" y="395.38" width="45.78" height="10" rx="5"/>
      <rect class="cls-15" x="103.41" y="334.11" width="99.62" height="5" rx="2.5"/>
      <rect class="cls-15" x="116.21" y="336.27" width="74.04" height="7.3" rx="2.6"/>
    </g>
    <g id="girl">
      <g id="body">
        <g id="shoe1">
          <path class="cls-16" transform="rotate(16.63 212.67701972 295.1685837)" d="M192.62 285.09h40v20h-40z"/>
          <path class="cls-17" d="M234.73 286.58a12.5 12.5 0 0112.5 12.5v12.5h-25v-12.5a12.5 12.5 0 0112.5-12.5z" transform="matrix(.96 .29 -.29 .96 95.44 -54.68)"/>
          <g clip-path="url(#clip-path-6)">
            <path class="cls-19" d="M230.09 313.46l8.49-28.41M242.5 286.53c1.75 2.5 1.58 5.83 1.2 8.85a106.15 106.15 0 01-4.63 20.77M236.61 284.23c-2.81-.84-3.46.56-6.72 5.06-3.83 5.3-6.27 16.47-7.25 21.27"/>
          </g>
          <path class="cls-17" d="M188.77 306.69h54.83v4.76h-50.45a4.38 4.38 0 01-4.38-4.38v-.38z" transform="rotate(16.63 216.22309492 309.1511699)"/>
          <path class="cls-20" d="M189 308.72h54.51v1.11h-53.36a1.11 1.11 0 01-1.11-1.11H189z" transform="rotate(16.63 216.32651702 309.38064725)"/>
        </g>
        <path class="cls-21" d="M236 82.71a8.8 8.8 0 018.8 8.8v73.8a7.21 7.21 0 01-7.21 7.21 9.79 9.79 0 01-9.79-9.79V90.9a8.2 8.2 0 018.2-8.2z" transform="rotate(171.78 236.34685235 127.60626622)"/>
        <path class="cls-22" d="M225.15 81.45h17v53.32a17 17 0 01-17-17V81.45z" transform="rotate(171.78 233.65221232 108.1034517)"/>
        <ellipse class="cls-22" cx="229.26" cy="92.52" rx="10.12" ry="12.85" transform="rotate(-24.65 229.30475937 92.5398452)"/>
        <rect class="cls-23" x="249.91" y="104.73" width="13.26" height="68.89" rx="6.5" transform="rotate(25.53 256.5767051 139.18808281)"/>
        <path class="cls-21" d="M254.33 95.5a2.13 2.13 0 011.9-3c.94-.07 3.22 1.14 4.3 3.47.1.21-.06-.25 1.71 5a1.2 1.2 0 002.22 0l1.21-3 1.93-15.11a2.71 2.71 0 015.34-.18c.12.6.19-.57-1.61 15.76l6.05-14.76a2.71 2.71 0 015.12 1.73c-.06.24.24-.53-6 14.65l8.31-10.91a2.71 2.71 0 014.85 1.48 2.45 2.45 0 01-.06.77c-.17.77 0 .39-9 12.22l7.61-5.89a2.41 2.41 0 012.94 3.81l-5.34 4.13a15.09 15.09 0 00-4.72 6.2 9.93 9.93 0 01-12.95 5.42l-2-.8a10.84 10.84 0 01-5.89-5.84l-6-15.22z"/>
        <path class="cls-23" d="M254.74 93.17A2.12 2.12 0 01255 93a2.15 2.15 0 011.8-.38 5.49 5.49 0 011.6.81 6.53 6.53 0 012.19 2.68c.1.26-.07-.21 1.27 3.78a5.06 5.06 0 001.09 2.24 1.58 1.58 0 002.56-.41l1.21-3c2.53-19.22 2.3-17.82 2.43-17.88a2.7 2.7 0 013.85 2.55c0 .11.09-.72-1.66 15.12l6.05-14.76a2.71 2.71 0 014.86-.31 2.66 2.66 0 01.29.76 2.62 2.62 0 010 1.15c-.08.35.43-.94-6 14.78l8.31-10.91a2.72 2.72 0 012.56-1 3.39 3.39 0 01.57.57 2.71 2.71 0 01.38 2.55c-.19.55.28-.16-8.13 10.88a1 1 0 00.41 1.51s4-3.15 8-6.15A2.42 2.42 0 01292 99l-6.82 5.19a15.18 15.18 0 00-4.72 6.2 10 10 0 01-14.5 4.69 10.77 10.77 0 01-4.34-4.6l-6.87-17.29z"/>
        <path class="cls-21" d="M267.89 113.27a8.45 8.45 0 00-3.59-10.49.6.6 0 01.6-1 9.66 9.66 0 014.1 12 .6.6 0 01-.78.32.59.59 0 01-.33-.83z"/>
        <g id="shirt">
          <path d="M233 102.24l-18.51 57h-9.83l-.91 13.68h1.84a11.46 11.46 0 004.8-1l-5 15.39a32.12 32.12 0 01-3 6.59c-6.35 10.58-18.63 18.41-30.1 18.41h-20c-7.64 0-13.38-3.48-16.21-8.93-2.11-4.09-2.59-9.28-1-14.95.1-.37.21-.74.33-1.12l22.87-70.41 3.12-9.9 1.55-4.77a35.54 35.54 0 018.54-13.67l.41-.42a41.72 41.72 0 015.73-4.71 38.39 38.39 0 016.79-3.71 30.48 30.48 0 0111.66-2.49h20c13.75.01 21.34 11.26 16.92 25.01z" fill="#e6eaed"/>
          <path class="cls-22" d="M220.2 77.24v2.93c0 4.75-5.15 8.63-11.46 8.63-6.3 0-11.45-3.88-11.45-8.63v-2.93"/>
        </g>
        <path class="cls-25" d="M175.15 212.24h-26.1c-12.06 0-18.72-9.86-14.8-21.92l1.64-5.06h70l-1.62 5c-3.93 12.09-17.03 21.98-29.12 21.98z"/>
        <g id="arm1">
          <path class="cls-23" d="M182.43 173.12l-2-.13c-8.61-.55-15.12-7.59-14.53-15.71l4.74-65.42c.38-5.24 5.19-9.2 10.74-8.84h.59a7.08 7.08 0 016.83 7.39l-6 82.37a.33.33 0 01-.37.34z"/>
          <path class="cls-22" d="M184.87 142.81l-18-1.15 3-41.36c.77-10.69 9.44-18.84 19.37-18.21z"/>
          <ellipse class="cls-22" cx="181.72" cy="92.23" rx="12.97" ry="10.63" transform="rotate(-64.07 181.73402922 92.23176166)"/>
          <path class="cls-23" d="M204.61 159.21l-.91 13.68h-24.6a8.44 8.44 0 01-4.95-1.58 8.53 8.53 0 01-3.59-7v-3a2.08 2.08 0 012.07-2.08z"/>
          <path class="cls-23" d="M214.58 165.41a.56.56 0 00.72.28l.23-.12.51-.26.43-.22a11.57 11.57 0 01-3.76 5.3l.5-7.48-2.55 7.85-.36 1.11a11.46 11.46 0 01-4.8 1h-1.8l.91-13.68h9.83v.12l.23-.12h.43a2.08 2.08 0 012.07 2.08 11.65 11.65 0 01-.23 2.3l-.8.41-.39.19-.89.46a.57.57 0 00-.28.78z"/>
          <path class="cls-23" d="M210.7 170.74l2.55-7.85-.5 7.48a10.31 10.31 0 01-.92.67 11.24 11.24 0 01-1.49.81zM214.64 159.21l-.23.12v-.12zM216.91 163.59a10.78 10.78 0 01-.4 1.48l-.43.22-.51.26-.23.12a.56.56 0 01-.72-.28.57.57 0 01.25-.76l.89-.46.39-.19z"/>
        </g>
        <g id="leg2">
          <path class="cls-26" d="M203.05 294.65c6.11 1.19 12.43-2 14.1-7.15l28.25-86.6c1.67-5.14-1.93-10.27-8-11.46-6.12-1.2-12.43 2-14.11 7.14L195 283.18c-1.67 5.14 1.93 10.27 8.05 11.47z"/>
          <path class="cls-21" d="M198.08 273.82L195 283.3c-1.66 5.14 2 10.27 8.07 11.45 6.12 1.18 12.43-2 14.09-7.17l3.07-9.48"/>
          <path class="cls-25" d="M156.34 189.24h80v23h-80z"/>
          <rect class="cls-27" x="195.62" y="272.6" width="26.85" height="6.98" rx="3.2" transform="rotate(13.9 209.08324802 276.18468756)"/>
          <path class="cls-26" d="M217 189.24h20.24v23H217a9.73 9.73 0 01-9.73-9.73V199a9.73 9.73 0 019.73-9.76z"/>
        </g>
        <g id="shoe2">
          <path class="cls-16" d="M154.17 309.35h40v20h-40z"/>
          <path class="cls-17" d="M195.55 308h1.9A11.55 11.55 0 01209 319.56v9.79h-25v-9.79A11.55 11.55 0 01195.55 308z"/>
          <g clip-path="url(#clip-path-7)">
            <path class="cls-29" d="M196.16 331.57v-25.31M200.35 306.52c2.39 1.62 3.18 4.38 3.68 6.94a77.24 77.24 0 011.51 18.11M194 306.08c-2.92 0-3.14 1.3-5 5.78-2.16 5.26-1.3 15-.86 19.16"/>
          </g>
          <path class="cls-17" d="M154.17 329.35H209v4.76h-50.45a4.38 4.38 0 01-4.38-4.38v-.38z"/>
          <path class="cls-20" d="M154.49 331.34H209v1.11h-53.39a1.11 1.11 0 01-1.11-1.11h-.01z"/>
        </g>
        <g id="leg1">
          <rect class="cls-26" x="141.86" y="189.23" width="34.02" height="23.01" rx="11.51"/>
          <rect class="cls-26" x="154.17" y="189.23" width="23" height="130" rx="11.5" transform="rotate(180 165.67 254.23)"/>
          <path class="cls-21" d="M154.17 296v11.7a11.5 11.5 0 0011.5 11.5 11.5 11.5 0 0011.5-11.5V296"/>
          <rect class="cls-27" x="152.11" y="292.54" width="26.85" height="6.98" rx="3.2"/>
        </g>
        <g id="neck">
          <path class="cls-23" d="M217.75 69.19v9c0 3.89-3.94 7.08-8.75 7.08-4.82 0-8.76-3.19-8.76-7.08v-9"/>
          <path class="cls-21" d="M217.75 71v7.22c0 2.52-3.94 3.2-8.75 3.2-4.82 0-8.76-5.68-8.76-8.2V71"/>
        </g>
        <path class="cls-21" d="M221.14 173.5a.21.21 0 01-.1.06h-.11a.51.51 0 01-.45-.13 2.43 2.43 0 00-.25-.2z"/>
        <path class="cls-21" d="M228.7 174.07l-2.61-2.72-1.63.8a.8.8 0 00-.16.08l-.28.14c-.33.16-.32.15-.65.33a1.33 1.33 0 00-.75 1.19l-1.48-.39-.92-.24-7.53-2-.86-.22-1.13-.3 5.75-5.47.37-.36.16-.15a1.82 1.82 0 00-.32.19l-.15.12-.43.22-.51.26-.23.12a.56.56 0 01-.72-.28.57.57 0 01.25-.76l.89-.46.39-.19.8-.41 1.23-.63a.56.56 0 01.61.07l.05.06z"/>
        <path class="cls-21" d="M217 164.76l-.16.15-.31.16.15-.12a1.82 1.82 0 01.32-.19zM243.16 178.11a3.33 3.33 0 01-.56.39 2.6 2.6 0 01-1.25.28 1.27 1.27 0 01-.28 0 2.62 2.62 0 01-1.59-.84c-.74-.8-.81-.89-.81-.9l-.76-.83-.07.05a2.76 2.76 0 01-.49.32 1.58 1.58 0 01-.36.14l-.18.06a.58.58 0 01-.18 0h-.31a3.38 3.38 0 01-.45 0 1.75 1.75 0 01-.33-.06 2.43 2.43 0 01-.38-.13 1.8 1.8 0 01-.34-.17 2.44 2.44 0 01-.58-.49l-.93-1-.76-.84-.24.21a2.35 2.35 0 00.56-.65 2.6 2.6 0 00-.29-3.1l-8.32-9.24c-2.13-2.38-6.42-3.75-9.28-2.3a7.08 7.08 0 018.73 1.69 4.91 4.91 0 011.37-.18 4.55 4.55 0 011 .12h.26l.28.08.23.09a.85.85 0 01.22.09 1.11 1.11 0 01.29.14 2.21 2.21 0 01.34.18 2.82 2.82 0 01.31.21 1.53 1.53 0 01.22.16.91.91 0 01.21.18 4.32 4.32 0 01.44.42l.28.32a5.08 5.08 0 011.45-.09H231.18a5.13 5.13 0 012.93 1.64l9.2 10.2.05.05 1.48 1.66a1.32 1.32 0 01-1.68 2.14z"/>
        <path class="cls-23" d="M243.16 178.11a2.61 2.61 0 01-3.69-.19c-.89-1-.81-.89-.79-.9a3.76 3.76 0 00.28-5.29l-8.31-9.23a5.18 5.18 0 013.51 1.72l9.19 10.21a2.6 2.6 0 01-.19 3.68z"/>
        <path class="cls-23" d="M237.36 176.56a2.61 2.61 0 01-3.13-.58l-.92-1a3.76 3.76 0 00.67-4.33c-.31-.62.12-.06-8.9-10.08a5.23 5.23 0 013.84 1.73c.46.51 8.83 9.8 9.19 10.21a2.61 2.61 0 01-.75 4.05z"/>
        <path class="cls-21" d="M216.82 164.91l-.37.36c0-.06 0-.13.06-.2z"/>
        <path class="cls-23" d="M232.87 173.68a2.35 2.35 0 01-.56.65 2.84 2.84 0 01-.66.4l-.15.06a1.77 1.77 0 01-.31.08 2.11 2.11 0 01-.35 0h-.36a2.64 2.64 0 01-1.78-.86l-9.85-10.93-.05-.06a.56.56 0 00-.61-.07l-1.23.63a11.65 11.65 0 00.23-2.3 2.08 2.08 0 00-2.07-2.08h-.43l.31-.2.31-.14.28-.11.28-.09.29-.08.3-.06.3-.05H218.31l.69.09h.16a4.87 4.87 0 01.52.12c.3.08.6.17.9.28a2.5 2.5 0 01.38.15l.3.13a6.3 6.3 0 01.69.34c.22.12.44.25.65.39a6.51 6.51 0 01.6.43 7.63 7.63 0 01.67.59l.3.31 8.32 9.23a2.63 2.63 0 01.38 3.15zM221.14 173.5a.21.21 0 01-.1.06h-.11a.51.51 0 01-.45-.13 2.43 2.43 0 00-.25-.2z"/>
        <path class="cls-1" d="M204.54 170.38l-.03-1.28"/>
        <path class="cls-23" d="M221.14 173.5a.21.21 0 01-.1.06h-.11a.51.51 0 01-.45-.13 2.43 2.43 0 00-.25-.2z"/>
      </g>
      <g id="face">
        <path id="hair" d="M232.9 72.49h-48.33l-9.48-36.28c0-20 15-36.21 33.63-36.21h.67c18.23 0 33 15.92 33 35.55z" fill="#72594b" stroke="#72594b" stroke-miterlimit="10"/>
        <rect id="ear1" class="cls-21" x="180.2" y="34.33" width="7.89" height="16.44" rx="3.69" transform="rotate(-22.88 184.10852577 42.55488874)"/>
        <rect id="ear2" class="cls-21" x="230.78" y="34.33" width="7.89" height="16.44" rx="3.69" transform="rotate(22.88 234.68505826 42.52869214)"/>
        <path class="cls-23" d="M214 76.18h-9.2S187 66.74 187 57.75l-2.09-25.17c0-9 8.4-16.35 18.67-16.35h12.44s18.67 7.36 18.67 16.35l-3.56 25.17c.03 8.99-17.13 18.43-17.13 18.43z"/>
        <g id="rings">
          <circle id="ring" cx="206.77" cy="50.74" r="1.97" stroke="#d2d5d4" stroke-width=".66" stroke-miterlimit="10" fill="none"/>
          <rect class="cls-32" x="233.92" y="47.75" width="1.6" height="4.34" rx=".8"/>
          <rect class="cls-32" x="236.07" y="47.1" width=".66" height="2.63" rx=".26" transform="rotate(-15.73 236.35685023 48.4004591)"/>
          <rect class="cls-32" x="236.82" y="45.61" width=".66" height="2.63" rx=".26" transform="rotate(-35.4 237.13189789 46.91866051)"/>
        </g>
        <rect id="nose" class="cls-21" x="206.21" y="41.18" width="7.23" height="11.39" rx="3.09"/>
        <g id="eyes">
          <rect class="cls-33" x="191.51" y="29.47" width="10.52" height="1.97" rx=".99" transform="rotate(-20.85 196.79639246 30.47608217)"/>
          <rect class="cls-33" x="217.68" y="29.5" width="10.52" height="1.97" rx=".99" transform="rotate(20.34 222.93868047 30.49277182)"/>
          <rect class="cls-33" x="191.51" y="34.93" width="7.89" height="2.63" rx="1.31"/>
          <ellipse class="cls-34" cx="197.82" cy="38.04" rx="3.29" ry="3.11"/>
          <rect class="cls-33" x="219.46" y="34.93" width="7.89" height="2.63" rx="1.31" transform="rotate(-180 223.4 36.245)"/>
          <ellipse class="cls-34" cx="221.04" cy="38.04" rx="3.29" ry="3.11"/>
        </g>
        <g id="mouth">
          <path d="M221.64 57.61a11.79 11.79 0 01-4.93 9.6c-.22.16-.46.31-.7.46a11.8 11.8 0 01-13.01-.46l-.21-.17a11.73 11.73 0 01-4.79-9.43z" fill="#644242"/>
          <path d="M216 67.67a11.8 11.8 0 01-13-.46l-.21-.17a6.88 6.88 0 0113.27.63z" fill="#ca3a3c"/>
          <path d="M220.29 59.79h-21a1.31 1.31 0 01-1.29-1.32v-.86h23.62v.86a1.32 1.32 0 01-1.33 1.32z" fill="#fff"/>
        </g>
        <g id="glasses">
          <path class="cls-38" d="M206.57 41.06h5.48M206.77 38.77a12.68 12.68 0 01-1.17 5.37 10.63 10.63 0 01-9.52 6.45c-5 0-9.16-3.76-10.36-8.84a13.21 13.21 0 01-.34-3c0-2.32-2-3.42-.92-5.26 2.54-1.07 8.66-2.47 12.42-1.8 4.25.75 7.78 2.61 9.69 4.81a11.92 11.92 0 01.2 2.27zM233.68 38.93a12.38 12.38 0 01-.18 2.12c-.9 5.51-5.26 9.69-10.51 9.69a10.62 10.62 0 01-9.56-6.52 12.85 12.85 0 01-.73-8.51 17.87 17.87 0 019.06-4.15c3.92-.7 9.78.76 12.34 1.94 1.12 1.87-.42 3.03-.42 5.43z"/>
        </g>
        <g id="fringe-2" data-name="fringe">
          <path id="fringe-3" data-name="fringe" d="M217.05 14.62c-3.24 11.6-12.49 18.37-24.54 20-2.75.38-8.16 21.96-10.71 21.38-.41-1.26.14-23.1 0-24.45-1.69-12.44 9.14-22.17 21.71-23.87 2.28-.31 13.12-.81 15.28-.47.64 1.65-1.32 5.88-1.74 7.41z" fill="#684e45"/>
          <g clip-path="url(#clip-path-8)">
            <path class="cls-41" d="M181.68 57.07a89.15 89.15 0 012-14 32.66 32.66 0 016-12.74c3.24-4 7.65-6.93 11.39-10.5a42.4 42.4 0 0011.2-18.23"/>
            <path class="cls-41" d="M209.07 4.63a21.62 21.62 0 01-5.59 7.46c-2.31 2.12-4.85 4-7.2 6a50.13 50.13 0 00-16.67 33.51"/>
            <path class="cls-41" d="M180.35 38.13c.41-4.18 2.65-8 5.35-11.22s5.87-6 8.62-9.21a46.16 46.16 0 009.11-16.44"/>
            <path class="cls-41" d="M179.84 32.38A70.79 70.79 0 01188.23 17a38.15 38.15 0 0113.14-11.42M182.77 57.83a34.6 34.6 0 018.63-24.11c3.87-4.36 8.83-7.7 12.4-12.31 4.6-5.94 6.68-13.72 12.1-18.93"/>
            <path class="cls-41" d="M191.26 38.71a7.79 7.79 0 00-3.37 3.35 16 16 0 00-.32 15.36M191.69 36.38a48.08 48.08 0 0025.06-32.15"/>
          </g>
        </g>
      </g>
    </g>
    <g id="tablet">
      <path d="M287.32 179.5h-80c-5.52 0-6.24-4.48-1.61-10l25.18-30c4.63-5.53 12.86-10 18.39-10h80c5.52 0 6.24 4.47 1.61 10l-25.18 30c-4.63 5.5-12.87 10-18.39 10z" fill="#848085"/>
      <path d="M290.16 179.5h-80c-5.53 0-6.25-4.48-1.61-10l25.17-30c4.63-5.53 12.87-10 18.39-10h80c5.52 0 6.24 4.47 1.61 10l-25.17 30c-4.64 5.5-12.87 10-18.39 10z" fill="#4e4c50"/>
      <path d="M305.28 179.5H262a8 8 0 01-7.66-5.68l-8.28-27.32h60l6.88 22.68a8 8 0 01-7.66 10.32z" stroke="#3b3a3e" stroke-width="2" stroke-miterlimit="10" fill="none"/>
    </g>
    <g id="cup">
      <path class="cls-45" d="M38.12 67.32c-2.76 0-5 3.2-5 7.14v4.42c0 4 2.24 7.15 5 7.15h7V67.32zM42.52 82h-4c-1.56 0-2.83-1.81-2.83-4v-2.58c0-2.24 1.27-4 2.83-4h4z"/>
      <path d="M52.13 97.85h20.79V100a2.27 2.27 0 01-2.27 2.27H54.4a2.27 2.27 0 01-2.27-2.27v-2.15z" fill="#b11a29"/>
      <path d="M45.12 63.73h32v25.34a10.39 10.39 0 01-10.39 10.39H55.51a10.39 10.39 0 01-10.39-10.39V63.73z" fill="#f04b4b"/>
      <path class="cls-45" d="M48.35 63.73h32v25.34A10.39 10.39 0 0170 99.46H58.74a10.39 10.39 0 01-10.39-10.39V63.73z"/>
    </g>
    <g id="monitor">
      <rect x="322.12" y="41.52" width="161.06" height="105.12" rx="10.98" fill="#e1e2e3"/>
      <path class="cls-49" d="M344.66 146.65H333.1c-6 0-11-5.57-11-12.37V53.89c0-6.8 4.94-12.37 11-12.37h11.56c-6 0-11 5.57-11 12.37v80.39c.02 6.8 4.96 12.37 11 12.37z"/>
      <path fill="#d3d4d5" d="M388.33 111.37h22.52v35.28h-22.52z"/>
      <rect class="cls-49" x="364.94" y="166.27" width="65.88" height="5.49" rx="2.75"/>
      <path class="cls-51" d="M430.83 127.84v43.92h-34.24l.18-8.9.67-33.9a17 17 0 00-2.75-9 29.26 29.26 0 00-6.7-8.55h26.37a16.47 16.47 0 0116.47 16.43z"/>
      <path class="cls-49" d="M404.1 127.84v43.92h-7.33v-43.92a18.52 18.52 0 00-2.08-7.92 29.26 29.26 0 00-6.7-8.55h6.76c2.81 0 9.35 7.36 9.35 16.47z"/>
      <circle class="cls-51" cx="405.32" cy="89.41" r="11.86"/>
    </g>
    <g id="table">
      <path class="cls-13" d="M27.65 180.38h7v215h-7z"/>
      <path class="cls-14" d="M25.15 180.38h12v85h-12z"/>
      <path class="cls-11" d="M25.15 180.38h12v12h-12z"/>
      <path class="cls-13" d="M65.85 180.38h7v215h-7z"/>
      <path class="cls-14" d="M63.35 180.38h12v85h-12z"/>
      <path class="cls-11" d="M63.35 180.38h12v12h-12z"/>
      <rect class="cls-52" y="395.38" width="100" height="10" rx="4"/>
      <rect class="cls-15" x="20" y="395.38" width="80" height="10" rx="4"/>
      <path class="cls-13" d="M456.97 180.38h7v215h-7z"/>
      <path class="cls-14" d="M454.47 180.38h12v85h-12z"/>
      <path class="cls-11" d="M454.47 180.38h12v12h-12z"/>
      <path class="cls-13" d="M495.17 180.38h7v215h-7z"/>
      <path class="cls-14" d="M492.67 180.38h12v85h-12z"/>
      <path class="cls-11" d="M492.67 180.38h12v12h-12z"/>
      <rect class="cls-52" x="429.32" y="395.38" width="100" height="10" rx="4"/>
      <rect class="cls-15" x="449.32" y="395.38" width="80" height="10" rx="4"/>
      <g clip-path="url(#clip-path-9)" id="shadow">
        <rect id="_Rectangle_2" data-name="&lt;Rectangle&gt;" y="170.38" width="540" height="10" rx="5" stroke="#a67c52" fill="#a67c52" stroke-miterlimit="10"/>
        <path d="M93.85 175.38c-5.25 3.45-10.14 3.78-11.48 6.9" stroke="#8c6239" fill="#a67c52" stroke-miterlimit="10"/>
        <path class="cls-56" d="M96.61 177.08c-6.61 6.15-13.83 6.11-10.16 6.15M94 166.26c-4.42 1.21-7.84 4.66-10.73 8.22s-5.55 7.43-9.3 10.06a13 13 0 01-7.38 2.59M84.65 169c-3.19 4.11-10.25 3.64-15 6.91-5 3.45-9.75 3-14.76 4.45S44.5 183.2 41 187.09M34.91 169c1.47 3.22 16.73 9.39 21.84 8.24 4.74-1.06 8-.64 11.71-3.82 2.76-2.4 3.91-6.12 4.82-9.66M40.84 168a17.55 17.55 0 0030.62-4.26"/>
        <path class="cls-56" d="M49.89 169.74a6.61 6.61 0 007.54.44 10 10 0 004.37-6.51M43 182.11c-4.39 1.44-9.25-.53-12.81-3.47s-6.24-6.81-9.51-10.06-7.53-6-12.15-5.83M56.48 182c-2.79.7-13.38-2.47-16-3.67-9-4.11-14.3-12.86-12.8-20M32.11 182.29c-7.69-2.44-12-11.12-19.6-13.83-4.44-1.58-9.38-.86-13.89.49"/>
        <path class="cls-56" d="M9.91 169.17a28.42 28.42 0 017.32 6 44.55 44.55 0 007 6.44 12.69 12.69 0 009 2.42M7.18 169.33a9.43 9.43 0 00-4.83 4 42.4 42.4 0 00-2.86 5.72 12.06 12.06 0 01-2.76 4.17 4.73 4.73 0 01-4.67 1.1M4 182.15a17.32 17.32 0 011.48-5.07 5.83 5.83 0 014-3.21 5.53 5.53 0 014.49 1.47 11.43 11.43 0 012.71 4 10 10 0 011 3.58 4.6 4.6 0 01-1.19 3.43"/>
        <path class="cls-56" d="M8.23 181.42a4.9 4.9 0 01.21-2.42 1.68 1.68 0 012-1 2.09 2.09 0 01.91 2.23 6.41 6.41 0 01-2.61 4.5"/>
      </g>
      <g clip-path="url(#clip-path-10)" id="light">
        <rect x="90" y="170.75" width="450" height="10" rx="5" fill="#c69c6d" stroke="#c69c6d" stroke-miterlimit="10"/>
        <path class="cls-56" d="M83.55 180.16a64 64 0 0030.76-23.3M86.69 185.74a80.61 80.61 0 0160.45-24.19"/>
        <path class="cls-56" d="M93 185.8c8.65-8.72 17.92-12.32 30-14.31 25-4.14 47.23-7.15 67.25-24.91"/>
        <path class="cls-56" d="M100 182.61c16.1-10.17 36.85-6 55.89-5.61a129.12 129.12 0 0098.8-44.31"/>
        <path class="cls-56" d="M109.9 185.55c4.47-5.62 12.23-7.79 19.39-7.2s13.88 3.54 20.37 6.62 13 6.35 20.07 7.66M139.27 167.79l-2.14-1.5A47.48 47.48 0 00201 152.67M148.68 182.38c.3-.2-.33-.66-.43-.31M149.24 183.86a928.65 928.65 0 0098.11-25.25M174 182.69a98.44 98.44 0 0132.48-8.87c1.28-.12 3 0 3.29 1.28.28 1-.64 2-1.47 2.64l-24.57 20"/>
        <path class="cls-56" d="M182.06 183.32A53.38 53.38 0 01199 176.6c1-.21 2.29-.33 3 .46a2.13 2.13 0 01.13 2.34 6.3 6.3 0 01-1.67 1.82l-9.21 7.68M205.2 184.59a61.18 61.18 0 0124.8-15.14c10.57-3.35 22.79-4.23 30.45-12.24"/>
        <path class="cls-56" d="M210.16 182.85c8.3-5.52 18.41-7.52 28.29-8.8s20-2 29.36-5.31 18.24-9.85 21.61-19.22"/>
        <path class="cls-56" d="M217.78 183.47c13.26-8.08 29.71-9.64 45-7.18s29.79 8.65 43.86 15.23M230.1 182.54a45.84 45.84 0 0147.79 8.46M272.44 169.11c8 8.52 20.41 11.56 32.05 10.93s22.83-4.47 34-7.82 22.79-6.25 34.38-5M279.71 170.19l-.37-.37"/>
        <path class="cls-56" d="M278.71 169.43c9.23 9.2 24.05 10.91 36.53 7.16s23-12.12 32.54-21"/>
        <path class="cls-56" d="M288 170c5.51 5 14.16 5 20.95 2s12.16-8.4 17.36-13.69M322.13 182.47h-.37M321.76 182.47h-.37M320 182.59c26.88-12.46 60.61-8.51 83.89 9.82M327.69 183.92a39.42 39.42 0 0152.11 10M349.29 169.82c26.89 7.89 62.49 3.39 84.75-13.63"/>
        <path class="cls-56" d="M364.92 169.82c5.19 2.18 17 2.69 22.35 1a24.13 24.13 0 0013.05-10.12M414.81 181.77c13.78-3.93 28.45-.28 42.3 3.37"/>
        <path class="cls-56" d="M405.44 185.44c3.72-4.44 9.4-6.82 15.09-7.9s11.52-1 17.29-1.41A103.93 103.93 0 00489.35 158M387.25 181.73h.37M380.85 185.74a97.81 97.81 0 0139.46-17c5.28-1 10.91-1.66 15.16-4.95"/>
        <path class="cls-56" d="M395.35 184.44c2.41-5.49 8.14-8.83 13.92-10.38s11.86-1.67 17.75-2.74a55.71 55.71 0 0029.88-16"/>
        <path class="cls-56" d="M400.74 182.32c11.8-5.57 24.77-8.07 37.25-11.86s25-9.25 33.49-19.2M436.72 183.92a55.74 55.74 0 0156.16 1.59M444 184.67a42.7 42.7 0 0144.36 2.1M458.24 167.25c4.54-1.22 9.3.93 13.16 3.61s7.42 6 11.85 7.55a17 17 0 0021.75-10.7"/>
        <path class="cls-56" d="M473 170a21 21 0 0010.12 5.75 12.74 12.74 0 0011.04-2.75c2.91-2.66 4.06-7.27 2.21-10.74M480.05 169.8a5.45 5.45 0 1010.14-3.47M493.33 185.12c11.72-14.57 33-20.57 50.6-14.27M497.6 184.75a75.15 75.15 0 0147-14.84M509.85 185.09a23.68 23.68 0 0140 1.6M516.88 184a11.32 11.32 0 0121 4.36"/>
      </g>
    </g>
    <g id="book">
      <path class="cls-59" d="M98.1 156.5v12H38.89a6 6 0 01-6-6 6 6 0 016-6z"/>
      <g class="cls-60">
        <path class="cls-61" d="M98.1 156.5v11.95H81.21A6 6 0 0177 158.2a5.93 5.93 0 013.5-1.7z"/>
      </g>
      <path class="cls-62" d="M98.1 159.22H33.89M98.1 162.5l-65.21.35"/>
      <path d="M39.33 168.5a6 6 0 110-12h60.12v-2h-63a8 8 0 000 16h63v-2z" fill="#4b5a51"/>
      <path class="cls-62" d="M98.12 166.15l-65.21.35"/>
      <path d="M33.27 162.5a6 6 0 016-6h-2.82a6 6 0 000 12h2.82a6 6 0 01-6-6z" fill="#313e37"/>
      <path class="cls-59" d="M106 144.67v8.46H36.22c-3.9 0-7.08-1.9-7.08-4.23a3.64 3.64 0 012.08-3 9.81 9.81 0 015-1.24z"/>
      <g class="cls-60">
        <path class="cls-61" d="M106 144.67v8.42H86.12c-3.9 0-7.07-1.89-7.07-4.23a3.65 3.65 0 012.07-3 9.42 9.42 0 014.13-1.2z"/>
      </g>
      <path class="cls-65" d="M106.04 146.58H30.32M106.04 148.9l-76.9.24"/>
      <path d="M36.74 153.13c-3.91 0-7.08-1.9-7.08-4.23s3.17-4.23 7.08-4.23h70.89v-1.41H33.34c-5.2 0-9.43 2.53-9.43 5.64s4.23 5.64 9.43 5.64h74.29v-1.41z" fill="#ff7f6a"/>
      <path class="cls-65" d="M106.07 151.47l-76.9.25"/>
      <path d="M29.59 148.9c0-2.34 3.17-4.23 7.08-4.23h-3.33c-3.9 0-7.07 1.89-7.07 4.23s3.17 4.23 7.07 4.23h3.33c-3.91 0-7.08-1.9-7.08-4.23z" fill="#ff5e3d"/>
      <path class="cls-59" d="M19.15 131.05v10.5h59.21c3.31 0 6-2.36 6-5.25a4.88 4.88 0 00-1.76-3.71 6.36 6.36 0 00-4.24-1.54z"/>
      <g class="cls-60">
        <path class="cls-61" d="M19.15 131.05v10.45H36c3.31 0 6-2.35 6-5.25a5 5 0 00-1.76-3.72 6.32 6.32 0 00-3.5-1.48z"/>
      </g>
      <path class="cls-68" d="M19.15 133.42h64.22M19.15 136.29l65.21.31"/>
      <path d="M77.92 141.54c3.32 0 6-2.35 6-5.25s-2.68-5.25-6-5.25H17.8v-1.75h63c4.41 0 8 3.14 8 7s-3.59 7-8 7h-63v-1.75z" fill="#007e3c"/>
      <path class="cls-68" d="M19.13 139.49l65.21.31"/>
      <path d="M84 136.29c0-2.9-2.68-5.25-6-5.25h2.8c3.32 0 6 2.35 6 5.25s-2.68 5.25-6 5.25H78c3.3 0 6-2.35 6-5.25z" fill="#005c27"/>
      <path class="cls-59" d="M77.31 103.9v13.25h-30c-1.68 0-3-3-3-6.63a11.51 11.51 0 01.89-4.68c.55-1.2 1.31-1.94 2.15-1.94z"/>
      <g class="cls-60">
        <path class="cls-61" d="M77.31 103.9v13.19h-8.56c-1.67 0-3-3-3-6.62a11.6 11.6 0 01.89-4.69 3.08 3.08 0 011.77-1.88z"/>
      </g>
      <path class="cls-71" d="M77.31 106.9H44.79M77.31 110.52l-33.02.39"/>
      <path d="M47.55 117.15c-1.68 0-3-3-3-6.63s1.36-6.62 3-6.62H78v-2.21H46.09c-2.23 0-4.05 4-4.05 8.83s1.82 8.84 4.05 8.84H78v-2.21z" fill="#ffc63e"/>
      <path class="cls-71" d="M77.32 114.56l-33.02.38"/>
      <path d="M44.48 110.52c0-3.66 1.36-6.62 3-6.62h-1.39c-1.67 0-3 3-3 6.62s1.36 6.63 3 6.63h1.43c-1.68 0-3.04-2.97-3.04-6.63z" fill="#dba510"/>
      <path class="cls-59" d="M86.09 119.36v8.58h-50.9c-2.84 0-5.15-1.92-5.15-4.29a3.91 3.91 0 011.51-3 5.67 5.67 0 013.64-1.26z"/>
      <g class="cls-60">
        <path class="cls-61" d="M86.09 119.36v8.55H71.57c-2.85 0-5.16-1.93-5.16-4.3a4 4 0 011.51-3 5.5 5.5 0 013-1.21z"/>
      </g>
      <path class="cls-74" d="M86.09 121.3h-55.2M86.09 123.65l-56.05.25"/>
      <path d="M35.57 127.94c-2.85 0-5.16-1.92-5.16-4.29s2.31-4.3 5.16-4.3h51.68v-1.43H33.1c-3.79 0-6.88 2.57-6.88 5.73s3.09 5.72 6.88 5.72h54.15v-1.43z" fill="#09a"/>
      <path class="cls-74" d="M86.11 126.26l-56.06.25"/>
      <path d="M30.36 123.65c0-2.37 2.31-4.3 5.16-4.3H33.1c-2.85 0-5.16 1.93-5.16 4.3s2.31 4.29 5.16 4.29h2.42c-2.85 0-5.16-1.94-5.16-4.29z" fill="#006974"/>
    </g>
    <g id="plant2">
      <path d="M506.8 122s23.37-48.91 59.89-53.78c0 0-36.21 24.79-49.76 53.78z" fill="#95ac42"/>
      <path d="M497.54 122s-3.89-66 3.46-87.9c0 0 9.74 34.09 7.31 87.65z" fill="#799322"/>
      <path class="cls-79" d="M501.13 121.16s14.43-60.28 46.08-79.75c0 0-32.14 47.51-34.33 79.75z"/>
      <path d="M497.54 122s-23.37-48.91-59.88-53.78c0 0 36.21 24.79 49.75 53.78z" fill="#a8c14a"/>
      <path class="cls-79" d="M503.21 121.16s-14.43-60.28-46.08-79.75c0 0 32.14 47.51 34.33 79.75z"/>
      <path class="cls-81" d="M518 121.75c.44-3.29 25.24-28.6 46.25 17 0 .04-17.04-21.87-46.25-17z"/>
      <path d="M523.71 121.75h-52.1l6.24 43.82h39.62z" fill="#ffe8af"/>
      <path class="cls-81" d="M486.35 121.75c-.44-3.29-25.25-28.6-46.26 17 0 .04 17.04-21.87 46.26-17z"/>
      <path d="M530.79 121.75h-52l6.21 43.82h39.52z" fill="#ffd773"/>
      <path d="M478.16 165.57l1.61 4.87h42.79l1.61-4.87z" fill="#bf7e68"/>
      <path class="cls-81" d="M493.65 121.75S474.17 95 464.44 146.09c0 0 9.91-22.5 29.21-24.34zM508.26 121.75s19.47-26.75 29.21 24.34c0 0-9.92-22.5-29.21-24.34z"/>
    </g>
  </g>
</svg>